{
  "accessors": [
    {
      "bufferView": 2,
      "componentType": 5126,
      "count": 65532,
      "max": [
        23.513401031494141,
        46.298801422119141,
        98.237274169921875
      ],
      "min": [
        -6.442349910736084,
        -31.387697219848633,
        -0.8344268798828125
      ],
      "type": "VEC3"
    },
    {
      "bufferView": 2,
      "byteOffset": 786384,
      "componentType": 5126,
      "count": 65532,
      "max": [
        0.99997192621231079,
        0.99995690584182739,
        0.99957066774368286
      ],
      "min": [
        -0.99998629093170166,
        -0.99998825788497925,
        -0.9999312162399292
      ],
      "type": "VEC3"
    },
    {
      "bufferView": 1,
      "componentType": 5126,
      "count": 65532,
      "max": [
        0.99903601408004761,
        0.99902999401092529
      ],
      "min": [
        0.00096088898135349154,
        0.00096178601961582899
      ],
      "type": "VEC2"
    },
    {
      "bufferView": 0,
      "componentType": 5125,
      "count": 367188,
      "max": [
        65531
      ],
      "min": [
        0
      ],
      "type": "SCALAR"
    },
    {
      "bufferView": 2,
      "byteOffset": 1572768,
      "componentType": 5126,
      "count": 65532,
      "max": [
        20.351600646972656,
        46.170299530029297,
        97.84197998046875
      ],
      "min": [
        -31.639301300048828,
        -31.387697219848633,
        -0.79542678594589233
      ],
      "type": "VEC3"
    },
    {
      "bufferView": 2,
      "byteOffset": 2359152,
      "componentType": 5126,
      "count": 65532,
      "max": [
        0.99994194507598877,
        0.99998015165328979,
        0.99943798780441284
      ],
      "min": [
        -0.99999690055847168,
        -0.99998825788497925,
        -0.99997532367706299
      ],
      "type": "VEC3"
    },
    {
      "bufferView": 1,
      "byteOffset": 524256,
      "componentType": 5126,
      "count": 65532,
      "max": [
        0.99902999401092529,
        0.99903100728988647
      ],
      "min": [
        0.00096110999584197998,
        0.00096178601961582899
      ],
      "type": "VEC2"
    },
    {
      "bufferView": 0,
      "byteOffset": 1468752,
      "componentType": 5125,
      "count": 365538,
      "max": [
        65531
      ],
      "min": [
        0
      ],
      "type": "SCALAR"
    },
    {
      "bufferView": 2,
      "byteOffset": 3145536,
      "componentType": 5126,
      "count": 9815,
      "max": [
        2.3694065021118149e-07,
        14.396102905273438,
        77.6934814453125
      ],
      "min": [
        -23.42340087890625,
        -25.106096267700195,
        12.085175514221191
      ],
      "type": "VEC3"
    },
    {
      "bufferView": 2,
      "byteOffset": 3263316,
      "componentType": 5126,
      "count": 9815,
      "max": [
        0.98209244012832642,
        0.99887114763259888,
        0.73636925220489502
      ],
      "min": [
        -0.99834924936294556,
        -0.99989980459213257,
        -0.99997532367706299
      ],
      "type": "VEC3"
    },
    {
      "bufferView": 1,
      "byteOffset": 1048512,
      "componentType": 5126,
      "count": 9815,
      "max": [
        0.94429099559783936,
        0.96983802318572998
      ],
      "min": [
        0.30388200283050537,
        0.33673000335693359
      ],
      "type": "VEC2"
    },
    {
      "bufferView": 0,
      "byteOffset": 2930904,
      "componentType": 5125,
      "count": 53994,
      "max": [
        9814
      ],
      "min": [
        0
      ],
      "type": "SCALAR"
    }
  ],
  "asset": {
    "extras": {
      "author": "Killer O (https://sketchfab.com/KillerOz1)",
      "license": "CC-BY-4.0 (http://creativecommons.org/licenses/by/4.0/)",
      "source": "https://sketchfab.com/3d-models/fat-raccoon-a688de9371c241cda6bce281cb25e71f",
      "title": "Fat Raccoon"
    },
    "generator": "Sketchfab-8.20.0",
    "version": "2.0"
  },
  "bufferViews": [
    {
      "buffer": 0,
      "byteLength": 3146880,
      "byteOffset": 0,
      "name": "floatBufferViews",
      "target": 34963
    },
    {
      "buffer": 0,
      "byteLength": 1127032,
      "byteOffset": 3146880,
      "byteStride": 8,
      "name": "floatBufferViews",
      "target": 34962
    },
    {
      "buffer": 0,
      "byteLength": 3381096,
      "byteOffset": 4273912,
      "byteStride": 12,
      "name": "floatBufferViews",
      "target": 34962
    }
  ],
  "buffers": [
    {
      "byteLength": 7655008,
      "uri": "scene.bin"
    }
  ],
  "images": [
    {
      "uri": "textures/SculptMaterial_baseColor.png"
    },
    {
      "uri": "textures/SculptMaterial_metallicRoughness.png"
    }
  ],
  "materials": [
    {
      "doubleSided": true,
      "name": "SculptMaterial",
      "pbrMetallicRoughness": {
        "baseColorFactor": [
          1,
          1,
          1,
          1
        ],
        "baseColorTexture": {
          "index": 0,
          "texCoord": 0
        },
        "metallicFactor": 0.23000000000000001,
        "metallicRoughnessTexture": {
          "index": 1,
          "texCoord": 0
        },
        "roughnessFactor": 1
      }
    }
  ],
  "meshes": [
    {
      "primitives": [
        {
          "attributes": {
            "NORMAL": 1,
            "POSITION": 0,
            "TEXCOORD_0": 2
          },
          "indices": 3,
          "material": 0,
          "mode": 4
        }
      ]
    },
    {
      "primitives": [
        {
          "attributes": {
            "NORMAL": 5,
            "POSITION": 4,
            "TEXCOORD_0": 6
          },
          "indices": 7,
          "material": 0,
          "mode": 4
        }
      ]
    },
    {
      "primitives": [
        {
          "attributes": {
            "NORMAL": 9,
            "POSITION": 8,
            "TEXCOORD_0": 10
          },
          "indices": 11,
          "material": 0,
          "mode": 4
        }
      ]
    }
  ],
  "nodes": [
    {
      "children": [
        1
      ],
      "name": "RootNode (gltf orientation matrix)",
      "rotation": [
        -0.70710678118654746,
        -0,
        -0,
        0.70710678118654757
      ]
    },
    {
      "children": [
        2
      ],
      "name": "RootNode (model correction matrix)"
    },
    {
      "children": [
        3,
        4,
        5
      ],
      "name": "Fat raccoon2.obj.cleaner.gles"
    },
    {
      "mesh": 0,
      "name": ""
    },
    {
      "mesh": 1,
      "name": ""
    },
    {
      "mesh": 2,
      "name": ""
    }
  ],
  "samplers": [
    {
      "magFilter": 9729,
      "minFilter": 9987,
      "wrapS": 10497,
      "wrapT": 10497
    }
  ],
  "scene": 0,
  "scenes": [
    {
      "name": "OSG_Scene",
      "nodes": [
        0
      ]
    }
  ],
  "textures": [
    {
      "sampler": 0,
      "source": 0
    },
    {
      "sampler": 0,
      "source": 1
    }
  ]
}

